<?xml version="1.0" encoding="UTF-8" standalone="no"?>
<svg
   viewBox="0 0 59.53202 150.24191"
   version="1.1"
   id="svg194"
   sodipodi:docname="unknown.svg"
   inkscape:export-filename="unknown2.svg"
   inkscape:export-xdpi="383.79346"
   inkscape:export-ydpi="383.79346"
   width="59.532021"
   height="150.24191"
   inkscape:version="1.3.2 (091e20ef0f, 2023-11-25, custom)"
   xmlns:inkscape="http://www.inkscape.org/namespaces/inkscape"
   xmlns:sodipodi="http://sodipodi.sourceforge.net/DTD/sodipodi-0.dtd"
   xmlns="http://www.w3.org/2000/svg"
   xmlns:svg="http://www.w3.org/2000/svg">
  <defs
     id="defs194">
    <linearGradient
       id="swatch196"
       inkscape:swatch="solid">
      <stop
         style="stop-color:#282828;stop-opacity:1;"
         offset="0"
         id="stop196" />
    </linearGradient>
    <inkscape:path-effect
       effect="bspline"
       id="path-effect196"
       is_visible="true"
       lpeversion="1.3"
       weight="33.333333"
       steps="2"
       helper_size="0"
       apply_no_weight="true"
       apply_with_weight="true"
       only_selected="false"
       uniform="false" />
  </defs>
  <sodipodi:namedview
     id="namedview194"
     pagecolor="#ffffff"
     bordercolor="#000000"
     borderopacity="0.25"
     inkscape:showpageshadow="2"
     inkscape:pageopacity="0.0"
     inkscape:pagecheckerboard="0"
     inkscape:deskcolor="#d1d1d1"
     inkscape:zoom="10.485315"
     inkscape:cx="-31.234158"
     inkscape:cy="77.87081"
     inkscape:window-width="3840"
     inkscape:window-height="2102"
     inkscape:window-x="0"
     inkscape:window-y="58"
     inkscape:window-maximized="1"
     inkscape:current-layer="svg194" />
  <path
     d="m 59.529,15.537002 v -4.782 0 a 1.18,1.18 0 0 1 -0.54,-0.143 v 5.068 a 1.177,1.177 0 0 1 0.54,-0.143 z"
     style="fill:#252927;fill-opacity:1"
     id="path1"
     inkscape:export-filename="path1.svg"
     inkscape:export-xdpi="96"
     inkscape:export-ydpi="96" />
  <path
     d="m 59.529,22.738002 v -4.782 0 a 1.18,1.18 0 0 1 -0.54,-0.143 v 5.068 a 1.165,1.165 0 0 1 0.54,-0.143 z"
     style="fill:#252927;fill-opacity:1"
     id="path2" />
  <path
     d="m 59.529,29.938002 v -4.78 0 a 1.18,1.18 0 0 1 -0.54,-0.143 v 5.066 a 1.177,1.177 0 0 1 0.54,-0.143 z"
     style="fill:#252927;fill-opacity:1"
     id="path3" />
  <path
     d="m 59.529,37.137002 v -4.78 0 a 1.18,1.18 0 0 1 -0.54,-0.143 v 5.066 a 1.177,1.177 0 0 1 0.54,-0.143 z"
     style="fill:#252927;fill-opacity:1"
     id="path4" />
  <path
     d="m 59.529,44.336002 v -4.78 0 a 1.18,1.18 0 0 1 -0.54,-0.143 v 5.066 a 1.177,1.177 0 0 1 0.54,-0.143 z"
     style="fill:#252927;fill-opacity:1"
     id="path5" />
  <path
     d="m 59.529,51.536002 v -4.78 0 a 1.181,1.181 0 0 1 -0.54,-0.144 v 5.067 a 1.177,1.177 0 0 1 0.54,-0.143 z"
     style="fill:#252927;fill-opacity:1"
     id="path6" />
  <path
     d="m 59.529,58.736002 v -4.781 0 a 1.18,1.18 0 0 1 -0.54,-0.143 v 5.067 a 1.177,1.177 0 0 1 0.54,-0.143 z"
     style="fill:#252927;fill-opacity:1"
     id="path7" />
  <path
     d="m 59.529,65.936002 v -4.781 0 a 1.18,1.18 0 0 1 -0.54,-0.143 v 5.067 a 1.177,1.177 0 0 1 0.54,-0.143 z"
     style="fill:#252927;fill-opacity:1"
     id="path8" />
  <path
     d="m 59.529,73.137002 v -4.781 0 a 1.18,1.18 0 0 1 -0.54,-0.143 v 5.067 a 1.177,1.177 0 0 1 0.54,-0.143 z"
     style="fill:#252927;fill-opacity:1"
     id="path9" />
  <path
     d="m 59.529,80.337002 v -4.781 0 a 1.18,1.18 0 0 1 -0.54,-0.143 v 5.066 a 1.177,1.177 0 0 1 0.54,-0.143 v 0"
     style="fill:#252927;fill-opacity:1"
     id="path10" />
  <path
     d="m 59.529,87.536002 v -4.78 0 a 1.181,1.181 0 0 1 -0.54,-0.144 v 5.067 a 1.177,1.177 0 0 1 0.54,-0.143 z"
     style="fill:#252927;fill-opacity:1"
     id="path11" />
  <path
     d="m 59.529,94.736002 v -4.781 0 a 1.18,1.18 0 0 1 -0.54,-0.143 v 5.067 a 1.177,1.177 0 0 1 0.54,-0.143 z"
     style="fill:#252927;fill-opacity:1"
     id="path12" />
  <path
     d="m 59.529,101.936 v -4.780998 0 a 1.18,1.18 0 0 1 -0.54,-0.143 V 102.079 a 1.177,1.177 0 0 1 0.54,-0.143 z"
     style="fill:#252927;fill-opacity:1"
     id="path13" />
  <path
     d="m 59.529,109.137 v -4.781 0 a 1.18,1.18 0 0 1 -0.54,-0.143 v 5.067 a 1.177,1.177 0 0 1 0.54,-0.143 z"
     style="fill:#252927;fill-opacity:1"
     id="path14" />
  <path
     d="m 59.529,116.337 v -4.781 0 a 1.18,1.18 0 0 1 -0.54,-0.143 v 5.066 a 1.176,1.176 0 0 1 0.54,-0.142 z"
     style="fill:#252927;fill-opacity:1"
     id="path15" />
  <path
     d="m 59.529,123.537 v -4.781 0 a 1.169,1.169 0 0 1 -0.54,-0.144 v 5.067 a 1.176,1.176 0 0 1 0.54,-0.142 v 0"
     style="fill:#252927;fill-opacity:1"
     id="path16" />
  <path
     d="m 59.529,130.736 v -4.781 0 a 1.18,1.18 0 0 1 -0.54,-0.143 v 5.067 a 1.177,1.177 0 0 1 0.54,-0.143 z"
     style="fill:#252927;fill-opacity:1"
     id="path17" />
  <path
     d="m 59.529,137.936 v -4.781 0 a 1.18,1.18 0 0 1 -0.54,-0.143 v 5.067 a 1.177,1.177 0 0 1 0.54,-0.143 z"
     style="fill:#252927;fill-opacity:1"
     id="path18" />
  <path
     d="m 59.529,145.136 v -4.78 0 a 1.18,1.18 0 0 1 -0.54,-0.143 v 5.065 a 1.176,1.176 0 0 1 0.54,-0.142 z"
     style="fill:#252927;fill-opacity:1"
     id="path19" />
  <path
     d="m 59.529,147.555 v 0 c -0.188851,-0.004 -0.37404,-0.0528 -0.54,-0.143 v 1.577 c 0,0.39157 -0.31743,0.709 -0.709,0.709 H 35.684344 c 0.09042,0.16587 -0.05193,0.35502 -0.04841,0.54391 L 58.394,150.238 c 0.626682,-1.1e-4 1.134553,-0.50832 1.134,-1.135 v -1.549 z"
     style="fill:#252927;fill-opacity:1"
     id="path20"
     sodipodi:nodetypes="cscssccsccc" />
  <path
     d="m 21.316758,149.70154 c 0.08262,0.18577 -0.03847,0.34245 -0.03495,0.53165 l 9.71944,0.008 c 0.0034,-0.18909 -2.395152,-0.37461 -2.305252,-0.541 z"
     style="fill:#252927;fill-opacity:1"
     id="path21"
     sodipodi:nodetypes="ccccc" />
  <path
     d="m 28.516885,149.7 c 0.09043,0.16623 -0.158832,0.3518 -0.15531,0.541 h 7.339737 c 0.0034,-0.18909 0.0521,-0.37461 0.142001,-0.541 z"
     style="fill:#252927;fill-opacity:1"
     id="path22"
     sodipodi:nodetypes="ccccc" />
  <path
     d="m 59.2,6.0000023 -0.416,0.417 a 0.707,0.707 0 0 1 0.208,0.5 v 1.563 a 1.177,1.177 0 0 1 0.54,-0.143 v 0 -1.532 a 1.126,1.126 0 0 0 -0.332,-0.805"
     style="fill:#252927;fill-opacity:1"
     id="path23" />
  <path
     d="M 21.5,149.7 H 1.251 a 0.708,0.708 0 0 1 -0.5,-0.208 l -0.417,0.417 a 1.134,1.134 0 0 0 0.8,0.332 h 20.221 a 1.178,1.178 0 0 1 0.143,-0.541"
     style="fill:#252927;fill-opacity:1"
     id="path24" />
  <path
     d="m 0.542,6.9210023 v 1.558 c 0.40710071,0.2003909 0.6663571,0.6132664 0.67,1.067 -0.00402,0.4533722 -0.26321912,0.8657707 -0.67,1.0659997 v 5.069 c 0.8933801,0.429899 0.8933801,1.702101 0,2.132 v 5.068 c 0.40678088,0.200229 0.6659806,0.612628 0.67,1.066 -0.00327,0.454095 -0.2625791,0.867448 -0.67,1.068 v 5.065 c 0.40710071,0.200391 0.6663571,0.613266 0.67,1.067 -0.00364,0.453734 -0.26289929,0.866609 -0.67,1.067 v 5.065 c 0.4074209,0.200552 0.6667341,0.613905 0.67,1.068 -0.00402,0.453372 -0.26321912,0.865771 -0.67,1.066 v 5.066 c 0.4074209,0.200552 0.6667341,0.613905 0.67,1.068 -0.00402,0.453372 -0.26321912,0.865771 -0.67,1.066 v 5.067 c 0.40678088,0.200229 0.6659806,0.612628 0.67,1.066 -0.00364,0.453734 -0.26289929,0.866609 -0.67,1.067 v 5.067 c 0.40678088,0.200229 0.6659806,0.612628 0.67,1.066 -0.00466,0.453689 -0.26354953,0.866374 -0.67,1.068 v 5.066 c 0.40678088,0.200229 0.6659806,0.612628 0.67,1.066 -0.00364,0.453734 -0.26289929,0.866609 -0.67,1.067 v 5.066 c 0.4074209,0.200552 0.6667341,0.613905 0.67,1.068 -0.00402,0.453372 -0.26321912,0.865771 -0.67,1.066 v 5.066 c 0.4074209,0.200552 0.6667341,0.613905 0.67,1.068 -0.00402,0.453372 -0.26321912,0.865771 -0.67,1.066 v 5.067 c 0.40678088,0.200229 0.6659806,0.612628 0.67,1.066 -0.00364,0.453734 -0.26289929,0.866609 -0.67,1.067 v 5.067 c 0.40678088,0.200229 0.6659806,0.612628 0.67,1.066 -0.00466,0.453689 -0.26354953,0.866374 -0.67,1.068 V 102.08 c 0.40678088,0.20023 0.6659806,0.61263 0.67,1.066 -0.00364,0.45373 -0.26289929,0.86661 -0.67,1.067 v 5.066 c 0.4074209,0.20055 0.6667341,0.61391 0.67,1.068 -0.00402,0.45337 -0.26321912,0.86577 -0.67,1.066 v 5.066 c 0.4074209,0.20055 0.6667341,0.61391 0.67,1.068 -0.00402,0.45337 -0.26321912,0.86577 -0.67,1.066 v 5.067 c 0.40678088,0.20023 0.6659806,0.61263 0.67,1.066 -0.00364,0.45373 -0.26289929,0.86661 -0.67,1.067 v 5.067 c 0.40678088,0.20023 0.6659806,0.61263 0.67,1.066 -0.00327,0.45409 -0.2625791,0.86745 -0.67,1.068 v 5.066 c 0.40678088,0.20023 0.6659806,0.61263 0.67,1.066 -0.00364,0.45373 -0.26289929,0.86661 -0.67,1.067 v 5.065 c 0.4074209,0.20055 0.6667341,0.61391 0.67,1.068 -0.00402,0.45337 -0.26321912,0.86577 -0.67,1.066 v 1.577 c -3.9e-7,0.39141 0.31759193,0.70855 0.709,0.708 h 57.028 c 0.391018,0 0.708,-0.31698 0.708,-0.708 v -1.577 c -0.892672,-0.43127 -0.892672,-1.70273 0,-2.134 v -5.064 c -0.892672,-0.43127 -0.892672,-1.70273 0,-2.134 v -5.066 c -0.892672,-0.43127 -0.892672,-1.70273 0,-2.134 v -5.067 c -0.891294,-0.43167 -0.891294,-1.70133 0,-2.133 v -5.067 c -0.892672,-0.43127 -0.892672,-1.70273 0,-2.134 v -5.065 c -0.892672,-0.43127 -0.892672,-1.70273 0,-2.134 v -5.066 c -0.892672,-0.43127 -0.892672,-1.70273 0,-2.134 v -5.065998 c -0.892672,-0.431273 -0.892672,-1.702727 0,-2.134 v -5.067 c -0.891294,-0.431673 -0.891294,-1.701327 0,-2.133 v -5.067 c -0.892672,-0.431273 -0.892672,-1.702727 0,-2.134 v -5.065 c -0.892672,-0.431273 -0.892672,-1.702727 0,-2.134 v -5.066 c -0.892672,-0.431273 -0.892672,-1.702727 0,-2.134 v -5.066 c -0.892672,-0.431273 -0.892672,-1.702727 0,-2.134 v -5.067 c -0.891294,-0.431673 -0.891294,-1.701327 0,-2.133 v -5.067 c -0.891294,-0.431673 -0.891294,-1.701327 0,-2.133 v -5.066 c -0.892672,-0.431273 -0.892672,-1.702727 0,-2.134 v -5.066 c -0.892672,-0.431273 -0.892672,-1.702727 0,-2.134 v -5.065 c -0.892672,-0.431273 -0.892672,-1.702727 0,-2.134 v -5.068 c -0.891644,-0.430989 -0.891644,-1.701011 0,-2.132 v -5.069 c -0.891294,-0.431673 -0.891294,-1.7013263 0,-2.1329997 v -1.558 c 5.53e-4,-0.3914081 -0.316592,-0.7090004 -0.708,-0.709 H 1.251 c -0.39179904,-5.538e-4 -0.70955378,0.317201 -0.709,0.709 M 4.565,147.542 c -1.0691602,0 -1.6044038,-1.29257 -0.848485,-2.04849 C 4.4724337,144.7376 5.765,145.27284 5.765,146.342 c 0,0.66274 -0.5372583,1.2 -1.2,1.2 m 1.2,-8.4 c 0,1.06916 -1.2925663,1.6044 -2.048485,0.84849 C 2.9605962,139.23457 3.4958398,137.942 4.565,137.942 c 0.6627417,0 1.2,0.53726 1.2,1.2 m 0,-7.2 c 0,1.06916 -1.2925663,1.6044 -2.048485,0.84849 C 2.9605962,132.03457 3.4958398,130.742 4.565,130.742 c 0.6627417,0 1.2,0.53726 1.2,1.2 m 0,-7.2 c 0,1.06916 -1.2925663,1.6044 -2.048485,0.84849 C 2.9605962,124.83457 3.4958398,123.542 4.565,123.542 c 0.6627417,0 1.2,0.53726 1.2,1.2 m 0,-7.2 c 0,1.06916 -1.2925663,1.6044 -2.048485,0.84849 C 2.9605962,117.63457 3.4958398,116.342 4.565,116.342 c 0.6627417,0 1.2,0.53726 1.2,1.2 m 0,-7.2 c 0,1.06916 -1.2925663,1.6044 -2.048485,0.84849 C 2.9605962,110.43457 3.4958398,109.142 4.565,109.142 c 0.6627417,0 1.2,0.53726 1.2,1.2 m 0,-7.2 c 0,1.06916 -1.2925663,1.6044 -2.048485,0.84849 C 2.9605962,103.23457 3.4958398,101.942 4.565,101.942 c 0.6627417,0 1.2,0.53726 1.2,1.2 m 0,-7.199998 c 0,1.06916 -1.2925663,1.604404 -2.048485,0.848485 C 2.9605962,96.034568 3.4958398,94.742002 4.565,94.742002 c 0.6627417,0 1.2,0.537258 1.2,1.2 m 0,-7.2 c 0,1.06916 -1.2925663,1.604404 -2.048485,0.848485 C 2.9605962,88.834568 3.4958398,87.542002 4.565,87.542002 c 0.6627417,0 1.2,0.537258 1.2,1.2 m 0,-7.2 c 0,1.06916 -1.2925663,1.604404 -2.048485,0.848485 C 2.9605962,81.634568 3.4958398,80.342002 4.565,80.342002 c 0.6627417,0 1.2,0.537258 1.2,1.2 m 0,-7.2 c 0,1.06916 -1.2925663,1.604404 -2.048485,0.848485 C 2.9605962,74.434568 3.4958398,73.142002 4.565,73.142002 c 0.6627417,0 1.2,0.537258 1.2,1.2 m 0,-7.2 c 0,1.06916 -1.2925663,1.604404 -2.048485,0.848485 C 2.9605962,67.234568 3.4958398,65.942002 4.565,65.942002 c 0.6627417,0 1.2,0.537258 1.2,1.2 m 0,-7.2 c 0,1.06916 -1.2925663,1.604404 -2.048485,0.848485 C 2.9605962,60.034568 3.4958398,58.742002 4.565,58.742002 c 0.6627417,0 1.2,0.537258 1.2,1.2 m 0,-7.2 c 0,1.06916 -1.2925663,1.604404 -2.048485,0.848485 C 2.9605962,52.834568 3.4958398,51.542002 4.565,51.542002 c 0.6627417,0 1.2,0.537258 1.2,1.2 m 0,-7.2 c 0,1.06916 -1.2925663,1.604404 -2.048485,0.848485 C 2.9605962,45.634568 3.4958398,44.342002 4.565,44.342002 c 0.6627417,0 1.2,0.537258 1.2,1.2 m 0,-7.2 c 0,1.06916 -1.2925663,1.604404 -2.048485,0.848485 C 2.9605962,38.434568 3.4958398,37.142002 4.565,37.142002 c 0.6627417,0 1.2,0.537258 1.2,1.2 m 0,-7.2 c 0,1.06916 -1.2925663,1.604404 -2.048485,0.848485 C 2.9605962,31.234568 3.4958398,29.942002 4.565,29.942002 c 0.6627417,0 1.2,0.537258 1.2,1.2 m 0,-7.2 c 0,1.06916 -1.2925663,1.604404 -2.048485,0.848485 C 2.9605962,24.034568 3.4958398,22.742002 4.565,22.742002 c 0.6627417,0 1.2,0.537258 1.2,1.2 m 0,-7.2 c 0,1.06916 -1.2925663,1.604404 -2.048485,0.848485 C 2.9605962,16.834568 3.4958398,15.542002 4.565,15.542002 c 0.6627417,0 1.2,0.537258 1.2,1.2 m 0,-7.1999997 C 5.765,10.611162 4.4724337,11.146406 3.716515,10.390487 2.9605962,9.6345686 3.4958398,8.3420023 4.565,8.3420023 c 0.6627417,0 1.2,0.5372583 1.2,1.2 M 13.625,146.942 c -2.245719,8.9e-4 -3.370588,-2.71405 -1.782818,-4.30182 1.58777,-1.58777 4.302709,-0.4629 4.301818,1.78282 -0.0017,1.39052 -1.12848,2.51735 -2.519,2.519 m 0,-132.949998 c -2.244104,0 -3.367779,-2.712814 -1.781465,-4.2997578 1.586314,-1.5869439 4.299574,-0.4643458 4.300465,1.7797578 0.0033,1.395205 -1.126791,2.528004 -2.522,2.528 M 53.765,146.345 c 0,-1.06916 1.292566,-1.6044 2.048485,-0.84849 0.755919,0.75592 0.220675,2.04849 -0.848485,2.04849 -0.662742,0 -1.2,-0.53726 -1.2,-1.2 m 0,-7.2 c 0,-1.06916 1.292566,-1.6044 2.048485,-0.84849 0.755919,0.75592 0.220675,2.04849 -0.848485,2.04849 -0.662742,0 -1.2,-0.53726 -1.2,-1.2 m 0,-7.2 c 0,-1.06916 1.292566,-1.6044 2.048485,-0.84849 0.755919,0.75592 0.220675,2.04849 -0.848485,2.04849 -0.662742,0 -1.2,-0.53726 -1.2,-1.2 m 0,-7.2 c 0,-1.06916 1.292566,-1.6044 2.048485,-0.84849 0.755919,0.75592 0.220675,2.04849 -0.848485,2.04849 -0.662742,0 -1.2,-0.53726 -1.2,-1.2 m 0,-7.2 c 0,-1.06916 1.292566,-1.6044 2.048485,-0.84849 0.755919,0.75592 0.220675,2.04849 -0.848485,2.04849 -0.662742,0 -1.2,-0.53726 -1.2,-1.2 m 0,-7.2 c 0,-1.06916 1.292566,-1.6044 2.048485,-0.84849 0.755919,0.75592 0.220675,2.04849 -0.848485,2.04849 -0.662742,0 -1.2,-0.53726 -1.2,-1.2 m 0,-7.2 c 0,-1.06916 1.292566,-1.6044 2.048485,-0.84849 0.755919,0.75592 0.220675,2.04849 -0.848485,2.04849 -0.662742,0 -1.2,-0.53726 -1.2,-1.2 m 0,-7.199998 c 0,-1.06916 1.292566,-1.604404 2.048485,-0.848485 0.755919,0.755919 0.220675,2.048485 -0.848485,2.048485 -0.662742,0 -1.2,-0.537258 -1.2,-1.2 m 0,-7.2 c 0,-1.06916 1.292566,-1.604404 2.048485,-0.848485 0.755919,0.755919 0.220675,2.048485 -0.848485,2.048485 -0.662742,0 -1.2,-0.537258 -1.2,-1.2 m 0,-7.2 c 0,-1.06916 1.292566,-1.604404 2.048485,-0.848485 0.755919,0.755919 0.220675,2.048485 -0.848485,2.048485 -0.662742,0 -1.2,-0.537258 -1.2,-1.2 m 0,-7.2 c 0,-1.06916 1.292566,-1.604404 2.048485,-0.848485 0.755919,0.755919 0.220675,2.048485 -0.848485,2.048485 -0.662742,0 -1.2,-0.537258 -1.2,-1.2 m 0,-7.2 c 0,-1.06916 1.292566,-1.604404 2.048485,-0.848485 0.755919,0.755919 0.220675,2.048485 -0.848485,2.048485 -0.662742,0 -1.2,-0.537258 -1.2,-1.2 m 0,-7.2 c 0,-1.06916 1.292566,-1.604404 2.048485,-0.848485 0.755919,0.755919 0.220675,2.048485 -0.848485,2.048485 -0.662742,0 -1.2,-0.537258 -1.2,-1.2 m 0,-7.2 c 0,-1.06916 1.292566,-1.604404 2.048485,-0.848485 0.755919,0.755919 0.220675,2.048485 -0.848485,2.048485 -0.662742,0 -1.2,-0.537258 -1.2,-1.2 m 0,-7.2 c 0,-1.06916 1.292566,-1.604404 2.048485,-0.848485 0.755919,0.755919 0.220675,2.048485 -0.848485,2.048485 -0.662742,0 -1.2,-0.537258 -1.2,-1.2 m 0,-7.2 c 0,-1.06916 1.292566,-1.604404 2.048485,-0.848485 0.755919,0.755919 0.220675,2.048485 -0.848485,2.048485 -0.662742,0 -1.2,-0.537258 -1.2,-1.2 m 0,-7.2 c 0,-1.06916 1.292566,-1.604404 2.048485,-0.848485 0.755919,0.755919 0.220675,2.048485 -0.848485,2.048485 -0.662742,0 -1.2,-0.537258 -1.2,-1.2 m 0,-7.2 c 0,-1.06916 1.292566,-1.604404 2.048485,-0.848485 0.755919,0.755919 0.220675,2.048485 -0.848485,2.048485 -0.662742,0 -1.2,-0.537258 -1.2,-1.2 m 0,-7.2 c 0,-1.06916 1.292566,-1.604404 2.048485,-0.848485 0.755919,0.755919 0.220675,2.048485 -0.848485,2.048485 -0.662742,0 -1.2,-0.537258 -1.2,-1.2 m 0,-7.1999997 c 0,-1.0691602 1.292566,-1.6044038 2.048485,-0.848485 0.755919,0.7559187 0.220675,2.0484847 -0.848485,2.0484847 -0.662742,0 -1.2,-0.537258 -1.2,-1.1999997 M 45.908,146.949 c -2.245719,8.9e-4 -3.370588,-2.71405 -1.782818,-4.30182 1.58777,-1.58777 4.302709,-0.4629 4.301818,1.78282 -0.0017,1.39052 -1.12848,2.51735 -2.519,2.519 m 0,-132.949998 c -2.244104,0 -3.367779,-2.712814 -1.781465,-4.2997578 1.586314,-1.5869439 4.299574,-0.4643458 4.300465,1.7797578 -5.51e-4,1.391301 -1.1277,2.519345 -2.519,2.521"
     style="fill:#48504c;fill-opacity:1"
     id="path25"
     sodipodi:nodetypes="ccccccccccccccccccccccccccccccccccccccccccccccccccccccccccccscsscccccccccccccccccccccccccccccccccccccccccccccssccssccssccssccssccssccssccssccssccssccssccssccssccssccssccssccssccssccssccssccscccscccssccssccssccssccssccssccssccssccssccssccssccssccssccssccssccssccssccssccssccssccscccscc" />
  <path
     d="M 58.4,5.6710023 H 1.134 A 1.134,1.134 0 0 0 0,6.8050023 v 1.531 0 a 1.162,1.162 0 0 1 0.54,0.144 v -1.559 a 0.709,0.709 0 0 1 0.709,-0.709 h 57.03 a 0.7,0.7 0 0 1 0.5,0.208 l 0.421,-0.42 a 1.131,1.131 0 0 0 -0.8,-0.332"
     style="fill:#58615d;fill-opacity:1"
     id="path26" />
  <path
     d="m 0,17.956002 v 4.782 0 a 1.158,1.158 0 0 1 0.54,0.143 v -5.068 a 1.17,1.17 0 0 1 -0.54,0.143 z"
     style="fill:#58615d;fill-opacity:1"
     id="path27" />
  <path
     d="m 0,25.156002 v 4.781 0 a 1.17,1.17 0 0 1 0.54,0.143 v -5.067 a 1.158,1.158 0 0 1 -0.54,0.143 v 0"
     style="fill:#58615d;fill-opacity:1"
     id="path28" />
  <path
     d="m 0,32.356002 v 4.781 0 a 1.169,1.169 0 0 1 0.54,0.142 v -5.065 a 1.169,1.169 0 0 1 -0.54,0.142 z"
     style="fill:#58615d;fill-opacity:1"
     id="path29" />
  <path
     d="m 0,39.556002 v 4.781 0 a 1.17,1.17 0 0 1 0.54,0.143 v -5.067 a 1.17,1.17 0 0 1 -0.54,0.143 z"
     style="fill:#58615d;fill-opacity:1"
     id="path30" />
  <path
     d="m 0,46.755002 v 4.781 0 a 1.17,1.17 0 0 1 0.54,0.143 v -5.067 a 1.159,1.159 0 0 1 -0.54,0.144 z"
     style="fill:#58615d;fill-opacity:1"
     id="path31" />
  <path
     d="m 0,53.955002 v 4.781 0 a 1.17,1.17 0 0 1 0.54,0.143 v -5.067 a 1.17,1.17 0 0 1 -0.54,0.143 z"
     style="fill:#58615d;fill-opacity:1"
     id="path32" />
  <path
     d="m 0,61.155002 v 4.781 0 a 1.17,1.17 0 0 1 0.54,0.143 v -5.067 a 1.17,1.17 0 0 1 -0.54,0.143 z"
     style="fill:#58615d;fill-opacity:1"
     id="path33" />
  <path
     d="m 0,68.355002 v 4.781 0 a 1.17,1.17 0 0 1 0.54,0.143 v -5.067 a 1.17,1.17 0 0 1 -0.54,0.143 z"
     style="fill:#58615d;fill-opacity:1"
     id="path34" />
  <path
     d="m 0,75.556002 v 4.781 0 a 1.17,1.17 0 0 1 0.54,0.143 v -5.067 a 1.17,1.17 0 0 1 -0.54,0.143 z"
     style="fill:#58615d;fill-opacity:1"
     id="path35" />
  <path
     d="m 0,82.755002 v 4.781 0 a 1.17,1.17 0 0 1 0.54,0.143 v -5.067 a 1.159,1.159 0 0 1 -0.54,0.144 z"
     style="fill:#58615d;fill-opacity:1"
     id="path36" />
  <path
     d="m 0,89.955002 v 4.781 0 a 1.17,1.17 0 0 1 0.54,0.143 v -5.067 a 1.17,1.17 0 0 1 -0.54,0.143 z"
     style="fill:#58615d;fill-opacity:1"
     id="path37" />
  <path
     d="m 0,97.155002 v 4.780998 0 a 1.17,1.17 0 0 1 0.54,0.143 v -5.066998 a 1.17,1.17 0 0 1 -0.54,0.143 z"
     style="fill:#58615d;fill-opacity:1"
     id="path38" />
  <path
     d="m 0,104.355 v 4.781 0 a 1.17,1.17 0 0 1 0.54,0.143 v -5.067 A 1.17,1.17 0 0 1 0,104.355 Z"
     style="fill:#58615d;fill-opacity:1"
     id="path39" />
  <path
     d="m 0,111.556 v 4.781 0 a 1.17,1.17 0 0 1 0.54,0.143 v -5.067 A 1.17,1.17 0 0 1 0,111.556 Z"
     style="fill:#58615d;fill-opacity:1"
     id="path40" />
  <path
     d="m 0,118.755 v 4.781 0 a 1.17,1.17 0 0 1 0.54,0.143 v -5.066 A 1.17,1.17 0 0 1 0,118.756 Z"
     style="fill:#58615d;fill-opacity:1"
     id="path41" />
  <path
     d="m 0,125.955 v 4.781 0 a 1.17,1.17 0 0 1 0.54,0.143 v -5.067 A 1.17,1.17 0 0 1 0,125.955 Z"
     style="fill:#58615d;fill-opacity:1"
     id="path42" />
  <path
     d="m 0,133.155 v 4.781 0 a 1.17,1.17 0 0 1 0.54,0.143 v -5.067 A 1.17,1.17 0 0 1 0,133.155 Z"
     style="fill:#58615d;fill-opacity:1"
     id="path43" />
  <path
     d="m 0,140.355 v 4.78 0 a 1.17,1.17 0 0 1 0.54,0.143 v -5.066 A 1.17,1.17 0 0 1 0,140.355 Z"
     style="fill:#58615d;fill-opacity:1"
     id="path44" />
  <path
     d="m 0,10.755002 v 4.782 0 a 1.159,1.159 0 0 1 0.54,0.144 v -5.069 a 1.158,1.158 0 0 1 -0.54,0.143 z"
     style="fill:#58615d;fill-opacity:1"
     id="path45" />
  <path
     d="m 0.333,149.906 0.416,-0.417 a 0.708,0.708 0 0 1 -0.207,-0.5 v -1.576 a 1.177,1.177 0 0 1 -0.541,0.142 v 1.545 a 1.134,1.134 0 0 0 0.332,0.8"
     style="fill:#58615d;fill-opacity:1"
     id="path46" />
  <path
     d="m 6.54,16.745002 a 1.977,1.977 0 0 0 -1.975,-1.975 H 0 v 0.766 0 a 1.21,1.21 0 0 1 1.209,1.209 1.211,1.211 0 0 1 -1.209,1.21 v 0 0.765 h 4.565 a 1.977,1.977 0 0 0 1.975,-1.975 m -1.975,1.2 a 1.2,1.2 0 1 1 1.2,-1.2 1.2,1.2 0 0 1 -1.2,1.2"
     style="fill:#9a916c"
     id="path47" />
  <path
     d="M 6.54,21.971002 H 0 v 0.766 0 a 1.211,1.211 0 0 1 1.209,1.21 1.21,1.21 0 0 1 -1.209,1.209 v 0 0.765 h 6.54 z m -1.975,3.172 a 1.2,1.2 0 1 1 1.2,-1.2 1.2,1.2 0 0 1 -1.2,1.2"
     style="fill:#9a916c"
     id="path48" />
  <path
     d="m 6.54,31.146002 a 1.978,1.978 0 0 0 -1.975,-1.976 H 0 v 0.766 0 a 1.21,1.21 0 0 1 0,2.42 v 0 0.765 h 4.565 a 1.978,1.978 0 0 0 1.975,-1.975 m -1.975,1.2 a 1.2,1.2 0 1 1 1.2,-1.2 1.2,1.2 0 0 1 -1.2,1.2"
     style="fill:#9a916c"
     id="path49" />
  <path
     d="m 6.54,38.345002 a 1.978,1.978 0 0 0 -1.975,-1.976 H 0 v 0.766 0 a 1.211,1.211 0 0 1 1.209,1.21 1.21,1.21 0 0 1 -1.209,1.209 v 0 0.765 h 4.565 a 1.976,1.976 0 0 0 1.975,-1.974 m -1.975,1.2 a 1.2,1.2 0 1 1 1.2,-1.2 1.2,1.2 0 0 1 -1.2,1.2"
     style="fill:#9a916c"
     id="path50" />
  <path
     d="m 6.54,45.545002 a 1.978,1.978 0 0 0 -1.975,-1.976 H 0 v 0.766 0 a 1.211,1.211 0 0 1 1.209,1.21 1.21,1.21 0 0 1 -1.209,1.209 v 0 0.765 h 4.565 a 1.976,1.976 0 0 0 1.975,-1.974 m -1.975,1.2 a 1.2,1.2 0 1 1 1.2,-1.2 1.2,1.2 0 0 1 -1.2,1.2"
     style="fill:#9a916c"
     id="path51" />
  <path
     d="m 6.54,52.745002 a 1.978,1.978 0 0 0 -1.975,-1.976 H 0 v 0.766 0 a 1.211,1.211 0 0 1 1.209,1.21 1.21,1.21 0 0 1 -1.209,1.209 v 0 0.765 h 4.565 a 1.976,1.976 0 0 0 1.975,-1.974 m -1.975,1.2 a 1.2,1.2 0 1 1 1.2,-1.2 1.2,1.2 0 0 1 -1.2,1.2"
     style="fill:#9a916c"
     id="path52" />
  <path
     d="M 6.54,57.970002 H 0 v 0.766 0 a 1.211,1.211 0 0 1 1.209,1.21 1.21,1.21 0 0 1 -1.209,1.209 v 0 0.765 h 6.54 z m -1.975,3.172 a 1.2,1.2 0 1 1 1.2,-1.2 1.2,1.2 0 0 1 -1.2,1.2"
     style="fill:#9a916c"
     id="path53" />
  <path
     d="m 6.54,67.145002 a 1.977,1.977 0 0 0 -1.975,-1.975 H 0 v 0.766 0 a 1.21,1.21 0 0 1 1.209,1.209 1.211,1.211 0 0 1 -1.209,1.21 v 0 0.765 h 4.565 a 1.977,1.977 0 0 0 1.975,-1.975 m -1.975,1.2 a 1.2,1.2 0 1 1 1.2,-1.2 1.2,1.2 0 0 1 -1.2,1.2"
     style="fill:#9a916c"
     id="path54" />
  <path
     d="m 6.54,74.345002 a 1.977,1.977 0 0 0 -1.975,-1.975 H 0 v 0.766 0 a 1.21,1.21 0 0 1 1.209,1.209 1.211,1.211 0 0 1 -1.209,1.21 v 0 0.765 h 4.565 a 1.977,1.977 0 0 0 1.975,-1.975 m -1.975,1.2 a 1.2,1.2 0 1 1 1.2,-1.2 1.2,1.2 0 0 1 -1.2,1.2"
     style="fill:#9a916c"
     id="path55" />
  <path
     d="m 6.54,81.545002 a 1.977,1.977 0 0 0 -1.975,-1.975 H 0 v 0.766 0 a 1.21,1.21 0 0 1 1.209,1.209 1.211,1.211 0 0 1 -1.209,1.21 v 0 0.765 h 4.565 a 1.977,1.977 0 0 0 1.975,-1.975 m -1.975,1.2 a 1.2,1.2 0 1 1 1.2,-1.2 1.2,1.2 0 0 1 -1.2,1.2"
     style="fill:#9a916c"
     id="path56" />
  <path
     d="m 6.54,88.745002 a 1.977,1.977 0 0 0 -1.975,-1.975 H 0 v 0.766 0 a 1.21,1.21 0 0 1 1.209,1.209 1.211,1.211 0 0 1 -1.209,1.21 v 0 0.765 h 4.565 a 1.977,1.977 0 0 0 1.975,-1.975 m -1.975,1.2 a 1.2,1.2 0 1 1 1.2,-1.2 1.2,1.2 0 0 1 -1.2,1.2"
     style="fill:#9a916c"
     id="path57" />
  <path
     d="M 6.54,93.970002 H 0 v 0.766 0 a 1.21,1.21 0 0 1 0,2.42 v 0 0.765 h 6.54 z m -1.975,3.173 a 1.2,1.2 0 1 1 1.2,-1.2 1.2,1.2 0 0 1 -1.2,1.2"
     style="fill:#9a916c"
     id="path58" />
  <path
     d="M 6.54,103.146 A 1.978,1.978 0 0 0 4.565,101.17 H 0 v 0.766 0 a 1.211,1.211 0 0 1 1.209,1.21 A 1.21,1.21 0 0 1 0,104.355 v 0 0.766 h 4.565 a 1.978,1.978 0 0 0 1.975,-1.975 m -1.975,1.2 a 1.2,1.2 0 1 1 1.2,-1.2 1.2,1.2 0 0 1 -1.2,1.2"
     style="fill:#9a916c"
     id="path59" />
  <path
     d="M 6.54,110.346 A 1.978,1.978 0 0 0 4.565,108.37 H 0 v 0.766 0 a 1.211,1.211 0 0 1 1.209,1.21 A 1.21,1.21 0 0 1 0,111.555 v 0 0.765 h 4.565 a 1.976,1.976 0 0 0 1.975,-1.974 m -1.975,1.2 a 1.2,1.2 0 1 1 1.2,-1.2 1.2,1.2 0 0 1 -1.2,1.2"
     style="fill:#9a916c"
     id="path60" />
  <path
     d="M 6.54,117.546 A 1.978,1.978 0 0 0 4.565,115.57 H 0 v 0.766 0 a 1.211,1.211 0 0 1 1.209,1.21 A 1.21,1.21 0 0 1 0,118.755 v 0 0.765 h 4.565 a 1.976,1.976 0 0 0 1.975,-1.974 m -1.975,1.2 a 1.2,1.2 0 1 1 1.2,-1.2 1.2,1.2 0 0 1 -1.2,1.2"
     style="fill:#9a916c"
     id="path61" />
  <path
     d="M 6.54,124.746 A 1.978,1.978 0 0 0 4.565,122.77 H 0 v 0.766 0 a 1.211,1.211 0 0 1 1.209,1.21 A 1.21,1.21 0 0 1 0,125.955 v 0 0.765 h 4.565 a 1.976,1.976 0 0 0 1.975,-1.974 m -1.975,1.2 a 1.2,1.2 0 1 1 1.2,-1.2 1.2,1.2 0 0 1 -1.2,1.2"
     style="fill:#9a916c"
     id="path62" />
  <path
     d="M 6.54,129.971 H 0 v 0.766 0 a 1.21,1.21 0 0 1 1.209,1.209 1.211,1.211 0 0 1 -1.209,1.21 v 0 0.765 h 6.54 z m -1.975,3.172 a 1.2,1.2 0 1 1 1.2,-1.2 1.2,1.2 0 0 1 -1.2,1.2"
     style="fill:#9a916c"
     id="path63" />
  <path
     d="M 6.54,139.146 A 1.977,1.977 0 0 0 4.565,137.171 H 0 v 0.766 0 a 1.21,1.21 0 0 1 1.209,1.209 1.211,1.211 0 0 1 -1.209,1.21 v 0 0.765 h 4.565 a 1.977,1.977 0 0 0 1.975,-1.975 m -1.975,1.2 a 1.2,1.2 0 1 1 1.2,-1.2 1.2,1.2 0 0 1 -1.2,1.2"
     style="fill:#9a916c"
     id="path64" />
  <path
     d="M 6.54,146.345 A 1.977,1.977 0 0 0 4.565,144.37 H 0 v 0.766 0 a 1.21,1.21 0 0 1 1.209,1.209 1.211,1.211 0 0 1 -1.209,1.21 v 0 0.765 h 4.565 a 1.977,1.977 0 0 0 1.975,-1.975 m -1.975,1.2 a 1.2,1.2 0 1 1 1.2,-1.2 1.2,1.2 0 0 1 -1.2,1.2"
     style="fill:#9a916c"
     id="path65" />
  <path
     d="m 54.965,18.721002 h 4.564 v -0.766 a 1.21,1.21 0 1 1 0,-2.419 v -0.766 h -4.564 a 1.976,1.976 0 0 0 0,3.951 m -1.2,-1.976 a 1.2,1.2 0 1 1 1.2,1.2 1.2,1.2 0 0 1 -1.2,-1.2"
     style="fill:#9a916c"
     id="path66" />
  <path
     d="m 52.99,25.921002 h 6.539 v -0.766 a 1.21,1.21 0 1 1 0,-2.419 v -0.766 H 52.99 Z m 0.778,-1.975 a 1.2,1.2 0 1 1 1.2,1.2 1.2,1.2 0 0 1 -1.2,-1.2"
     style="fill:#9a916c"
     id="path67" />
  <path
     d="m 54.965,33.120002 h 4.564 v -0.765 a 1.21,1.21 0 1 1 0,-2.419 v -0.767 h -4.564 a 1.976,1.976 0 0 0 0,3.951 m -1.2,-1.975 a 1.2,1.2 0 1 1 1.2,1.2 1.2,1.2 0 0 1 -1.2,-1.2"
     style="fill:#9a916c"
     id="path68" />
  <path
     d="m 54.965,40.320002 h 4.564 v -0.766 a 1.21,1.21 0 1 1 0,-2.419 v -0.766 h -4.564 a 1.976,1.976 0 0 0 0,3.951 m -1.2,-1.975 a 1.2,1.2 0 1 1 1.2,1.2 1.2,1.2 0 0 1 -1.2,-1.2"
     style="fill:#9a916c"
     id="path69" />
  <path
     d="m 54.965,47.520002 h 4.564 v -0.766 a 1.21,1.21 0 1 1 0,-2.419 v -0.766 h -4.564 a 1.976,1.976 0 0 0 0,3.951 m -1.2,-1.975 a 1.2,1.2 0 1 1 1.2,1.2 1.2,1.2 0 0 1 -1.2,-1.2"
     style="fill:#9a916c"
     id="path70" />
  <path
     d="m 54.965,54.720002 h 4.564 v -0.766 a 1.21,1.21 0 1 1 0,-2.419 v -0.766 h -4.564 a 1.976,1.976 0 0 0 0,3.951 m -1.2,-1.975 a 1.2,1.2 0 1 1 1.2,1.2 1.2,1.2 0 0 1 -1.2,-1.2"
     style="fill:#9a916c"
     id="path71" />
  <path
     d="m 52.99,61.920002 h 6.539 v -0.766 a 1.21,1.21 0 1 1 0,-2.419 v -0.766 H 52.99 Z m 0.778,-1.975 a 1.2,1.2 0 1 1 1.2,1.2 1.2,1.2 0 0 1 -1.2,-1.2"
     style="fill:#9a916c"
     id="path72" />
  <path
     d="m 54.965,69.121002 h 4.564 v -0.766 a 1.21,1.21 0 1 1 0,-2.419 v -0.766 h -4.564 a 1.976,1.976 0 0 0 0,3.951 m -1.2,-1.976 a 1.2,1.2 0 1 1 1.2,1.2 1.2,1.2 0 0 1 -1.2,-1.2"
     style="fill:#9a916c"
     id="path73" />
  <path
     d="m 54.965,76.321002 h 4.564 v -0.766 a 1.21,1.21 0 1 1 0,-2.419 v -0.766 h -4.564 a 1.976,1.976 0 0 0 0,3.951 m -1.2,-1.976 a 1.2,1.2 0 1 1 1.2,1.2 1.2,1.2 0 0 1 -1.2,-1.2"
     style="fill:#9a916c"
     id="path74" />
  <path
     d="m 54.965,83.521002 h 4.564 v -0.766 a 1.21,1.21 0 1 1 0,-2.419 v -0.767 h -4.564 a 1.976,1.976 0 0 0 0,3.952 m -1.2,-1.976 a 1.2,1.2 0 1 1 1.2,1.2 1.2,1.2 0 0 1 -1.2,-1.2"
     style="fill:#9a916c"
     id="path75" />
  <path
     d="m 54.965,90.721002 h 4.564 v -0.767 a 1.21,1.21 0 1 1 0,-2.419 v -0.766 h -4.564 a 1.976,1.976 0 0 0 0,3.952 m -1.2,-1.976 a 1.2,1.2 0 1 1 1.2,1.2 1.2,1.2 0 0 1 -1.2,-1.2"
     style="fill:#9a916c"
     id="path76" />
  <path
     d="m 52.99,97.920002 h 6.539 v -0.766 a 1.21,1.21 0 1 1 0,-2.419 v -0.766 H 52.99 Z m 0.778,-1.975 a 1.2,1.2 0 1 1 1.2,1.2 1.2,1.2 0 0 1 -1.2,-1.2"
     style="fill:#9a916c"
     id="path77" />
  <path
     d="m 54.965,105.12 h 4.564 v -0.766 a 1.21,1.21 0 1 1 0,-2.419 v -0.766 h -4.564 a 1.976,1.976 0 0 0 0,3.951 m -1.2,-1.975 a 1.2,1.2 0 1 1 1.2,1.2 1.2,1.2 0 0 1 -1.2,-1.2"
     style="fill:#9a916c"
     id="path78" />
  <path
     d="m 54.965,112.321 h 4.564 v -0.766 a 1.21,1.21 0 1 1 0,-2.419 v -0.766 h -4.564 a 1.976,1.976 0 0 0 0,3.951 m -1.2,-1.975 a 1.2,1.2 0 1 1 1.2,1.2 1.2,1.2 0 0 1 -1.2,-1.2"
     style="fill:#9a916c"
     id="path79" />
  <path
     d="m 54.965,119.521 h 4.564 v -0.766 a 1.21,1.21 0 1 1 0,-2.419 v -0.766 h -4.564 a 1.976,1.976 0 0 0 0,3.951 m -1.2,-1.975 a 1.2,1.2 0 1 1 1.2,1.2 1.2,1.2 0 0 1 -1.2,-1.2"
     style="fill:#9a916c"
     id="path80" />
  <path
     d="m 54.965,126.721 h 4.564 v -0.766 a 1.21,1.21 0 1 1 0,-2.419 v -0.766 h -4.564 a 1.976,1.976 0 0 0 0,3.951 m -1.2,-1.975 a 1.2,1.2 0 1 1 1.2,1.2 1.2,1.2 0 0 1 -1.2,-1.2"
     style="fill:#9a916c"
     id="path81" />
  <path
     d="m 52.99,133.921 h 6.539 v -0.766 a 1.21,1.21 0 1 1 0,-2.419 V 129.97 H 52.99 Z m 0.778,-1.976 a 1.2,1.2 0 1 1 1.2,1.2 1.2,1.2 0 0 1 -1.2,-1.2"
     style="fill:#9a916c"
     id="path82" />
  <path
     d="m 54.965,141.121 h 4.564 v -0.766 a 1.21,1.21 0 1 1 0,-2.419 v -0.766 h -4.564 a 1.976,1.976 0 0 0 0,3.951 m -1.2,-1.976 a 1.2,1.2 0 1 1 1.2,1.2 1.2,1.2 0 0 1 -1.2,-1.2"
     style="fill:#9a916c"
     id="path83" />
  <path
     d="m 54.965,148.321 h 4.564 v -0.766 a 1.21,1.21 0 1 1 0,-2.419 v -0.767 h -4.564 a 1.976,1.976 0 0 0 0,3.952 m -1.2,-1.976 a 1.2,1.2 0 1 1 1.2,1.2 1.2,1.2 0 0 1 -1.2,-1.2"
     style="fill:#9a916c"
     id="path84" />
  <path
     d="m 54.965,11.520002 h 4.564 v -0.766 a 1.21,1.21 0 1 1 0,-2.4189997 v -0.766 h -4.564 a 1.976,1.976 0 0 0 0,3.9509997 m -1.2,-1.9759997 a 1.2,1.2 0 1 1 1.2,1.1999997 1.2,1.2 0 0 1 -1.2,-1.1999997"
     style="fill:#9a916c"
     id="path88" />
  <path
     d="m 6.54,9.5440023 a 1.977,1.977 0 0 0 -1.975,-1.975 H 0 v 0.766 0 a 1.21,1.21 0 0 1 1.211,1.209 A 1.211,1.211 0 0 1 0,10.754002 v 0 0.765 H 4.565 A 1.977,1.977 0 0 0 6.54,9.5440023 M 4.565,10.744002 a 1.2,1.2 0 1 1 1.2,-1.1999997 1.2,1.2 0 0 1 -1.2,1.1999997"
     style="fill:#9a916c"
     id="path89" />
  <path
     d="m 13.622,148.949 a 4.52,4.52 0 1 1 4.52,-4.519 4.524,4.524 0 0 1 -4.52,4.519 m 0,-7.039 a 2.52,2.52 0 1 0 2.52,2.52 2.523,2.523 0 0 0 -2.52,-2.52"
     style="fill:#949389;fill-opacity:1"
     id="path90" />
  <path
     d="m 45.908,148.949 a 4.52,4.52 0 1 1 4.52,-4.519 4.525,4.525 0 0 1 -4.52,4.519 m 0,-7.039 a 2.52,2.52 0 1 0 2.52,2.52 2.523,2.523 0 0 0 -2.52,-2.52"
     style="fill:#949389;fill-opacity:1"
     id="path91" />
  <path
     d="m 13.622,16.000002 a 4.52,4.52 0 1 1 4.52,-4.519 4.524,4.524 0 0 1 -4.52,4.519 m 0,-7.0389997 a 2.519,2.519 0 1 0 2.52,2.5199997 2.522,2.522 0 0 0 -2.52,-2.5199997"
     style="fill:#959588;fill-opacity:1"
     id="path92" />
  <path
     d="m 45.908,16.000002 a 4.52,4.52 0 1 1 4.52,-4.519 4.525,4.525 0 0 1 -4.52,4.519 m 0,-7.0389997 a 2.519,2.519 0 1 0 2.52,2.5199997 2.522,2.522 0 0 0 -2.52,-2.5199997"
     style="fill:#949489;fill-opacity:1"
     id="path93" />
  <rect
     x="19.778"
     y="67.967003"
     width="19.975"
     height="19.974001"
     style="display:inline;fill:#f0f0f0;fill-opacity:1;stroke:#282828;stroke-width:0.5;stroke-linejoin:round;stroke-dasharray:none;stroke-opacity:1"
     id="rect93" />
  <path
     d="M 39.12,17.009002 H 20.411 a 0.567,0.567 0 0 1 -0.567,-0.567 V 2.5060023 a 0.566,0.566 0 0 1 0.567,-0.566 H 39.12 a 0.566,0.566 0 0 1 0.566,0.566 V 16.442002 a 0.567,0.567 0 0 1 -0.566,0.567"
     style="fill:#363a44"
     id="path94" />
  <path
     d="M 21.264,2.3484735e-6 A 0.565,0.565 0 0 0 20.722,0.40000235 l -0.312,1.02999995 -0.567,0.57 V 16.441002 a 0.567,0.567 0 0 0 0.567,0.568 h 3.46 a 0.284,0.284 0 0 0 0.284,-0.283 v -0.826 a 0.569,0.569 0 0 0 -0.295,-0.5 l -1.926,-1.052 a 0.567,0.567 0 0 1 -0.295,-0.5 v -0.827 H 22.9 v -0.951 h 1.94 v 0.953 h 1.144 v 1.971 a 0.567,0.567 0 0 0 0.567,0.568 h 0.919 v -1.023 h 4.59 v 1.023 h 0.92 a 0.567,0.567 0 0 0 0.566,-0.568 v -1.971 h 1.144 v -0.953 h 1.944 v 0.953 h 1.258 v 0.827 a 0.567,0.567 0 0 1 -0.3,0.5 l -1.921,1.05 a 0.568,0.568 0 0 0 -0.3,0.5 v 0.829 a 0.284,0.284 0 0 0 0.284,0.283 h 3.459 a 0.568,0.568 0 0 0 0.568,-0.568 V 2.0000023 l -0.568,-0.567 -0.305,-1.03299995 A 0.567,0.567 0 0 0 38.266,2.3484735e-6 Z"
     style="fill:#dbddda"
     id="path95" />
  <path
     d="m 20.465,2.8830023 a 11.555,11.555 0 0 1 -0.729,-1.05 3.83,3.83 0 0 1 -0.3,-0.61 4.275,4.275 0 0 1 -0.184,-0.64399995 0.34,0.34 0 0 1 0.656,-0.179 v 0 a 3.073,3.073 0 0 0 0.523,0.96199995 10.972,10.972 0 0 0 0.79,0.865 v 0 a 0.50030616,0.50030616 0 1 1 -0.715,0.7 0.515,0.515 0 0 1 -0.043,-0.05"
     style="fill:#dbddda"
     id="path96" />
  <path
     d="m 38.308,2.2290023 a 10.963,10.963 0 0 0 0.79,-0.864 3.1,3.1 0 0 0 0.522,-0.96499995 v 0 a 0.34,0.34 0 0 1 0.655,0.179 4.042,4.042 0 0 1 -0.184,0.64299995 3.826,3.826 0 0 1 -0.3,0.61 11.555,11.555 0 0 1 -0.729,1.05 0.5,0.5 0 1 1 -0.8,-0.6 0.472,0.472 0 0 1 0.041,-0.048 z"
     style="fill:#dbddda"
     id="path97" />
  <path
     style="fill:none;fill-opacity:1;stroke:#282828;stroke-width:1.1;stroke-linecap:round;stroke-linejoin:round;stroke-dasharray:none;stroke-opacity:1"
     d="m 25.625,74.96875 c 0.774718,-1.564334 1.591951,-3.214516 3.736255,-3.071031 2.144304,0.143485 3.305339,1.747824 3.375639,3.240675 0.0703,1.492852 -2.345954,3.664216 -2.844952,4.524156 -0.498999,0.85994 -0.514418,1.827488 -0.548192,3.946825"
     id="path196"
     inkscape:path-effect="#path-effect196"
     inkscape:original-d="m 25.625,74.96875 c 0.774718,-1.564334 1.591951,-3.214516 3.25,-6.5625 2.630559,3.634954 3.791594,5.239293 5.15625,7.125 -1.224055,1.099996 -3.64031,3.27136 -4.625,4.15625 -0.01331,0.83499 -0.02873,1.802538 -0.0625,3.921875"
     sodipodi:nodetypes="ccccc"
     transform="translate(0.1875,-1.6406227)" />
  <ellipse
     style="fill:#2a2a2a;fill-opacity:1;stroke:none;stroke-width:2.13178;stroke-linecap:round;stroke-linejoin:round;stroke-dasharray:none;stroke-opacity:1"
     id="path198"
     ry="1.38787"
     rx="1.0461532"
     cy="85.01387"
     cx="29.554918" />
</svg>
